<?xml version="1.0" encoding="UTF-8"?>
<svg version="1.1" xmlns="http://www.w3.org/2000/svg" width="64" height="64">
<path d="M0 0 C1.76947998 -0.00717545 1.76947998 -0.00717545 3.57470703 -0.01449585 C6.06609431 -0.01789477 8.55752619 -0.00869315 11.04882812 0.01220703 C14.86168899 0.03896907 18.67160568 0.01245507 22.484375 -0.01953125 C24.9062565 -0.01622716 27.32813616 -0.00982094 29.75 0 C31.45953857 -0.01518173 31.45953857 -0.01518173 33.20361328 -0.03067017 C37.84071245 0.03797919 40.99638184 0.1768009 45.09130859 2.44775391 C47.86172612 7.44330284 47.58900525 12.16526093 47.5390625 17.7890625 C47.54384613 18.96871582 47.54862976 20.14836914 47.55355835 21.36376953 C47.55695727 23.85515681 47.54775565 26.34658869 47.52685547 28.83789062 C47.50009343 32.65075149 47.52660743 36.46066818 47.55859375 40.2734375 C47.55528966 42.695319 47.54888344 45.11719866 47.5390625 47.5390625 C47.55424423 49.24860107 47.55424423 49.24860107 47.56973267 50.99267578 C47.50108331 55.62977495 47.3622616 58.78544434 45.09130859 62.88037109 C40.09575966 65.65078862 35.37380157 65.37806775 29.75 65.328125 C27.98052002 65.33530045 27.98052002 65.33530045 26.17529297 65.34262085 C23.68390569 65.34601977 21.19247381 65.33681815 18.70117188 65.31591797 C14.88831101 65.28915593 11.07839432 65.31566993 7.265625 65.34765625 C4.8437435 65.34435216 2.42186384 65.33794594 0 65.328125 C-1.70953857 65.34330673 -1.70953857 65.34330673 -3.45361328 65.35879517 C-8.09071245 65.29014581 -11.24638184 65.1513241 -15.34130859 62.88037109 C-18.11172612 57.88482216 -17.83900525 53.16286407 -17.7890625 47.5390625 C-17.79384613 46.35940918 -17.79862976 45.17975586 -17.80355835 43.96435547 C-17.80695727 41.47296819 -17.79775565 38.98153631 -17.77685547 36.49023438 C-17.75009343 32.67737351 -17.77660743 28.86745682 -17.80859375 25.0546875 C-17.80528966 22.632806 -17.79888344 20.21092634 -17.7890625 17.7890625 C-17.79918365 16.64937012 -17.80930481 15.50967773 -17.81973267 14.33544922 C-17.75108331 9.69835005 -17.6122616 6.54268066 -15.34130859 2.44775391 C-10.34575966 -0.32266362 -5.62380157 -0.04994275 0 0 Z M-10.125 8.6640625 C-10.22331146 10.16276298 -10.25298456 11.66604789 -10.25439453 13.16796875 C-10.25754669 14.12566162 -10.26069885 15.08335449 -10.26394653 16.07006836 C-10.2619223 17.11171143 -10.25989807 18.15335449 -10.2578125 19.2265625 C-10.25924759 20.8189978 -10.25924759 20.8189978 -10.26071167 22.44360352 C-10.26139364 24.69319722 -10.25953819 26.94279287 -10.25537109 29.19238281 C-10.2500231 32.64913321 -10.25531554 36.10575367 -10.26171875 39.5625 C-10.26105797 41.74218779 -10.25977682 43.9218755 -10.2578125 46.1015625 C-10.25983673 47.14320557 -10.26186096 48.18484863 -10.26394653 49.25805664 C-10.26079437 50.21574951 -10.25764221 51.17344238 -10.25439453 52.16015625 C-10.25359894 53.00763428 -10.25280334 53.8551123 -10.25198364 54.72827148 C-10.33819708 56.6706338 -10.33819708 56.6706338 -9.125 57.6640625 C-7.62629952 57.76237396 -6.12301461 57.79204706 -4.62109375 57.79345703 C-3.66340088 57.79660919 -2.70570801 57.79976135 -1.71899414 57.80300903 C-0.15652954 57.79997269 -0.15652954 57.79997269 1.4375 57.796875 C2.49912354 57.79783173 3.56074707 57.79878845 4.65454102 57.79977417 C6.90413472 57.80045614 9.15373037 57.79860069 11.40332031 57.79443359 C14.86007071 57.7890856 18.31669117 57.79437804 21.7734375 57.80078125 C23.95312529 57.80012047 26.132813 57.79883932 28.3125 57.796875 C29.35414307 57.79889923 30.39578613 57.80092346 31.46899414 57.80300903 C32.90553345 57.79828079 32.90553345 57.79828079 34.37109375 57.79345703 C35.21857178 57.79266144 36.0660498 57.79186584 36.93920898 57.79104614 C38.8815713 57.87725958 38.8815713 57.87725958 39.875 56.6640625 C39.97331146 55.16536202 40.00298456 53.66207711 40.00439453 52.16015625 C40.00912277 50.72361694 40.00912277 50.72361694 40.01394653 49.25805664 C40.0119223 48.21641357 40.00989807 47.17477051 40.0078125 46.1015625 C40.00876923 45.03993896 40.00972595 43.97831543 40.01071167 42.88452148 C40.01139364 40.63492778 40.00953819 38.38533213 40.00537109 36.13574219 C40.0000231 32.67899179 40.00531554 29.22237133 40.01171875 25.765625 C40.01105797 23.58593721 40.00977682 21.4062495 40.0078125 19.2265625 C40.00983673 18.18491943 40.01186096 17.14327637 40.01394653 16.07006836 C40.01079437 15.11237549 40.00764221 14.15468262 40.00439453 13.16796875 C40.00359894 12.32049072 40.00280334 11.4730127 40.00198364 10.59985352 C40.08819708 8.6574912 40.08819708 8.6574912 38.875 7.6640625 C37.37629952 7.56575104 35.87301461 7.53607794 34.37109375 7.53466797 C33.41340088 7.53151581 32.45570801 7.52836365 31.46899414 7.52511597 C30.42735107 7.5271402 29.38570801 7.52916443 28.3125 7.53125 C27.25087646 7.53029327 26.18925293 7.52933655 25.09545898 7.52835083 C22.84586528 7.52766886 20.59626963 7.52952431 18.34667969 7.53369141 C14.88992929 7.5390394 11.43330883 7.53374696 7.9765625 7.52734375 C5.79687471 7.52800453 3.617187 7.52928568 1.4375 7.53125 C0.39585693 7.52922577 -0.64578613 7.52720154 -1.71899414 7.52511597 C-3.15553345 7.52984421 -3.15553345 7.52984421 -4.62109375 7.53466797 C-5.46857178 7.53546356 -6.3160498 7.53625916 -7.18920898 7.53707886 C-9.1315713 7.45086542 -9.1315713 7.45086542 -10.125 8.6640625 Z " fill="#FDD22D" transform="translate(17.125,-0.6640625)"/>
<path d="M0 0 C2.701875 -0.103125 5.40375 -0.20625 8.1875 -0.3125 C9.02949951 -0.35802002 9.87149902 -0.40354004 10.73901367 -0.45043945 C14.99418668 -0.5288362 16.53610394 -0.37172325 19.98828125 2.39453125 C23.42904868 6.85082616 23.69808672 10.47268319 23 16 C20.93354779 19.46868763 18.89808091 21.80891972 15 23 C12.30903473 23.15007306 9.69998637 23.08999955 7 23 C7 25.97 7 28.94 7 32 C4.69 32 2.38 32 0 32 C0 21.44 0 10.88 0 0 Z M7 7 C7 9.97 7 12.94 7 16 C12.01535052 15.67039784 12.01535052 15.67039784 16 13 C15.83492354 10.42459787 15.83492354 10.42459787 15 8 C12.29120665 6.64560332 9.99066732 6.93498549 7 7 Z " fill="#FDD32D" transform="translate(22,16)"/>
</svg>
