<?xml version="1.0" encoding="UTF-8"?>
<svg version="1.1" xmlns="http://www.w3.org/2000/svg" width="512" height="512">
<path d="M0 0 C1.58115301 -0.00374134 3.16230417 -0.00834479 4.74345243 -0.01373065 C9.06819487 -0.0259164 13.39285969 -0.02570541 17.71761537 -0.02334189 C22.38992128 -0.0229326 27.06220268 -0.03398364 31.73449707 -0.04345703 C40.88128047 -0.06004406 50.02803809 -0.06556555 59.17483528 -0.06668179 C66.61344142 -0.06763342 74.05203909 -0.07174945 81.49064255 -0.07808304 C102.60012567 -0.09568971 123.70958848 -0.10492289 144.819079 -0.10342209 C146.52480204 -0.10330222 146.52480204 -0.10330222 148.26498413 -0.10317993 C149.40352822 -0.10309817 150.54207231 -0.10301641 151.71511774 -0.10293217 C170.15917457 -0.10211959 188.60314967 -0.1212518 207.04718287 -0.14945666 C226.00467057 -0.17821694 244.96211845 -0.19199521 263.9196285 -0.19026911 C274.55503185 -0.18960627 285.19034954 -0.19505231 295.82573318 -0.21662521 C304.88229533 -0.23487847 313.93873299 -0.23915043 322.99530561 -0.22560637 C327.61100179 -0.21909742 332.22645941 -0.2188841 336.84213257 -0.23631287 C341.07771726 -0.25214108 345.31287619 -0.24908163 349.54845111 -0.2317446 C351.07063602 -0.22869598 352.5928535 -0.23222522 354.11499996 -0.24346475 C374.69255043 -0.38519579 392.84524998 5.30402953 408.32699585 19.26742554 C409.01148804 19.85910522 409.69598022 20.45078491 410.4012146 21.06039429 C423.17348532 32.82895022 431.56411139 50.36440193 432.51474071 67.68894124 C432.59024855 71.77401216 432.60362498 75.85487305 432.59442139 79.94042969 C432.59816273 81.5215827 432.60276617 83.10273386 432.60815203 84.68388212 C432.62033779 89.00862456 432.6201268 93.33328938 432.61776328 97.65804505 C432.61735399 102.33035096 432.62840502 107.00263236 432.63787842 111.67492676 C432.65446545 120.82171016 432.65998694 129.96846778 432.66110317 139.11526497 C432.6620548 146.55387111 432.66617084 153.99246878 432.67250443 161.43107224 C432.6901111 182.54055535 432.69934427 203.65001817 432.69784348 224.75950868 C432.69772361 226.46523173 432.69772361 226.46523173 432.69760132 228.20541382 C432.69751956 229.34395791 432.6974378 230.482502 432.69735356 231.65554743 C432.69654097 250.09960426 432.71567319 268.54357936 432.74387805 286.98761256 C432.77263833 305.94510025 432.78641659 324.90254813 432.7846905 343.86005819 C432.78402765 354.49546154 432.78947369 365.13077923 432.8110466 375.76616287 C432.82929985 384.82272502 432.83357182 393.87916268 432.82002775 402.9357353 C432.8135188 407.55143147 432.81330549 412.1668891 432.83073425 416.78256226 C432.84656247 421.01814695 432.84350302 425.25330588 432.82616599 429.4888808 C432.82311737 431.01106571 432.82664661 432.53328318 432.83788614 434.05542965 C432.97961718 454.63298012 427.29039186 472.78567967 413.32699585 488.26742554 C412.73531616 488.95191772 412.14363647 489.63640991 411.5340271 490.34164429 C399.88649256 502.98257196 382.16310952 511.48679082 364.99937141 512.45517039 C360.92309443 512.53110431 356.8510204 512.54401598 352.77424622 512.53485107 C351.19395626 512.53859141 349.61366815 512.54319445 348.03338295 512.54858172 C343.70638121 512.56078013 339.37945696 512.56055498 335.05244195 512.55819297 C330.37943678 512.55778399 325.70645618 512.56883175 321.03346252 512.57830811 C311.88319991 512.59490252 302.73296306 512.60041698 293.58268666 512.60153286 C286.14119618 512.60248422 278.69971419 512.60659891 271.25822639 512.61293411 C250.14283513 512.63054346 229.02746416 512.63977364 207.9120655 512.63827316 C206.7743514 512.63819325 205.6366373 512.63811334 204.46444702 512.63803101 C203.32533743 512.63794924 202.18622784 512.63786748 201.01259977 512.63778324 C182.56201284 512.63697077 164.11150764 512.65609942 145.66094434 512.68430774 C126.69896825 512.71306823 107.73703197 512.72684624 88.77503353 512.72512019 C78.13626184 512.72445731 67.49757578 512.72990472 56.85882378 512.75147629 C47.79857762 512.76972991 38.73845591 512.77400127 29.67819928 512.76045744 C25.06048483 512.75394843 20.44300883 512.75373533 15.82531738 512.77116394 C11.58784243 512.78699212 7.35079305 512.78393273 3.11332787 512.76659568 C1.59044012 512.76354703 0.06751983 512.76707642 -1.45532949 512.77831583 C-22.03539567 512.91999697 -40.18904592 507.23281694 -55.67300415 493.26742554 C-56.35749634 492.67574585 -57.04198853 492.08406616 -57.7472229 491.47445679 C-70.51949363 479.70590085 -78.91011969 462.17044914 -79.86074901 444.84590983 C-79.93625685 440.76083892 -79.94963328 436.67997802 -79.94042969 432.59442139 C-79.94417103 431.01326838 -79.94877447 429.43211722 -79.95416033 427.85096896 C-79.96634609 423.52622652 -79.9661351 419.20156169 -79.96377158 414.87680602 C-79.96336229 410.20450011 -79.97441332 405.53221871 -79.98388672 400.85992432 C-80.00047375 391.71314091 -80.00599524 382.56638329 -80.00711147 373.41958611 C-80.0080631 365.98097996 -80.01217914 358.5423823 -80.01851273 351.10377884 C-80.0361194 329.99429572 -80.04535257 308.8848329 -80.04385178 287.77534239 C-80.04377187 286.6381937 -80.04369195 285.501045 -80.04360962 284.32943726 C-80.04352786 283.19089317 -80.0434461 282.05234908 -80.04336186 280.87930365 C-80.04254927 262.43524682 -80.06168149 243.99127171 -80.08988635 225.54723851 C-80.11864663 206.58975082 -80.13242489 187.63230294 -80.1306988 168.67479289 C-80.13003595 158.03938954 -80.13548199 147.40407185 -80.1570549 136.7686882 C-80.17530815 127.71212605 -80.17958012 118.6556884 -80.16603605 109.59911577 C-80.1595271 104.9834196 -80.15931379 100.36796198 -80.17674255 95.75228882 C-80.19257077 91.51670413 -80.18951132 87.2815452 -80.17217429 83.04597028 C-80.16912567 81.52378536 -80.17265491 80.00156789 -80.18389444 78.47942142 C-80.32562548 57.90187096 -74.63640016 39.7491714 -60.67300415 24.26742554 C-60.08132446 23.58293335 -59.48964478 22.89844116 -58.8800354 22.19320679 C-43.24401327 5.223622 -22.26168414 -0.05014923 0 0 Z M-22.61050415 60.14242554 C-28.10525989 68.46781302 -28.10608317 75.34522162 -28.06741333 85.16447449 C-28.0723046 86.69781923 -28.0784955 88.23116027 -28.08587122 89.76449507 C-28.10226408 93.9708145 -28.09995415 98.17694641 -28.09449625 102.3832866 C-28.09182524 106.92261624 -28.10635923 111.461896 -28.11859131 116.00120544 C-28.13964476 124.89172534 -28.1441862 133.78218002 -28.14240342 142.6727219 C-28.14109571 149.89978518 -28.14490044 157.12682811 -28.15232849 164.35388756 C-28.15442769 166.43579203 -28.15652529 168.5176965 -28.15862131 170.59960097 C-28.15966484 171.63583406 -28.16070837 172.67206714 -28.16178352 173.73970123 C-28.18068568 193.33748697 -28.17963581 212.93523528 -28.17281419 232.53302636 C-28.16723925 250.45756233 -28.18806212 268.38195535 -28.22117466 286.30645791 C-28.25491656 304.71464214 -28.27007933 323.12275789 -28.26545763 341.53097361 C-28.26321338 351.86443476 -28.26844955 362.19776379 -28.29335022 372.5311985 C-28.31436981 381.32891987 -28.3179488 390.12643669 -28.29905063 398.92416648 C-28.28989672 403.41155644 -28.2887391 407.8985651 -28.30940628 412.38592529 C-28.32813272 416.49743198 -28.32359452 420.6082455 -28.30086046 424.71972593 C-28.29667887 426.20353508 -28.30086 427.68739755 -28.3144564 429.1711503 C-28.39482697 438.58637863 -27.69227235 446.5458713 -21.26576376 453.87156421 C-13.32466631 461.08551952 -4.92345772 460.70179726 5.2240448 460.66183472 C6.75738954 460.66672599 8.29073059 460.67291689 9.82406539 460.68029261 C14.03038481 460.69668547 18.23651672 460.69437554 22.44285691 460.68891764 C26.98218656 460.68624662 31.52146631 460.70078062 36.06077576 460.7130127 C44.95129565 460.73406614 53.84175033 460.73860758 62.73229221 460.73682481 C69.95935549 460.73551709 77.18639842 460.73932182 84.41345787 460.74674988 C86.49536234 460.74884908 88.57726681 460.75094668 90.65917128 460.7530427 C92.21352091 460.75460799 92.21352091 460.75460799 93.79927155 460.7562049 C113.39705729 460.77510707 132.99480559 460.7740572 152.59259667 460.76723558 C170.51713264 460.76166064 188.44152566 460.78248351 206.36602823 460.81559604 C224.77421245 460.84933795 243.1823282 460.86450072 261.59054393 460.85987902 C271.92400507 460.85763477 282.2573341 460.86287094 292.59076881 460.88777161 C301.38849018 460.9087912 310.186007 460.91237019 318.98373679 460.89347202 C323.47112676 460.8843181 327.95813541 460.88316049 332.44549561 460.90382767 C336.55700229 460.9225541 340.66781581 460.91801591 344.77929624 460.89528185 C346.2631054 460.89110026 347.74696787 460.89528138 349.23072062 460.90887779 C358.64594894 460.98924835 366.60544161 460.28669373 373.93113452 453.86018515 C381.14508984 445.9190877 380.76136758 437.51787911 380.72140503 427.37037659 C380.7262963 425.83703185 380.7324872 424.3036908 380.73986292 422.770356 C380.75625578 418.56403658 380.75394585 414.35790467 380.74848795 410.15156448 C380.74581694 405.61223483 380.76035093 401.07295508 380.77258301 396.53364563 C380.79363645 387.64312573 380.7981779 378.75267105 380.79639512 369.86212917 C380.79508741 362.6350659 380.79889214 355.40802296 380.80632019 348.18096352 C380.80841939 346.09905905 380.81051699 344.01715458 380.81261301 341.9352501 C380.81365654 340.89901702 380.81470007 339.86278393 380.81577522 338.79514984 C380.83467738 319.1973641 380.83362751 299.59961579 380.82680589 280.00182471 C380.82123095 262.07728874 380.84205382 244.15289572 380.87516636 226.22839316 C380.90890826 207.82020894 380.92407103 189.41209319 380.91944933 171.00387746 C380.91720508 160.67041632 380.92244125 150.33708729 380.94734192 140.00365257 C380.96836151 131.2059312 380.9719405 122.40841438 380.95304233 113.6106846 C380.94388842 109.12329463 380.9427308 104.63628598 380.96339798 100.14892578 C380.98212441 96.0374191 380.97758622 91.92660558 380.95485216 87.81512515 C380.95067057 86.33131599 380.95485169 84.84745352 380.9684481 83.36370077 C381.04881867 73.94847244 380.34626404 65.98897977 373.91975546 58.66328686 C365.97865801 51.44933155 357.57744942 51.83305381 347.4299469 51.87301636 C345.89660216 51.86812509 344.36326111 51.86193419 342.82992631 51.85455847 C338.62360689 51.8381656 334.41747498 51.84047554 330.21113479 51.84593344 C325.67180514 51.84860445 321.13252539 51.83407046 316.59321594 51.82183838 C307.70269605 51.80078493 298.81224136 51.79624349 289.92169949 51.79802626 C282.69463621 51.79933398 275.46759328 51.79552925 268.24053383 51.7881012 C266.15862936 51.78600199 264.07672489 51.78390439 261.99482042 51.78180838 C260.95858733 51.78076485 259.92235424 51.77972132 258.85472015 51.77864617 C239.25693441 51.759744 219.65918611 51.76079387 200.06139503 51.7676155 C182.13685906 51.77319043 164.21246604 51.75236757 146.28796347 51.71925503 C127.87977925 51.68551313 109.4716635 51.67035036 91.06344777 51.67497206 C80.72998663 51.6772163 70.3966576 51.67198013 60.06322289 51.64707947 C51.26550152 51.62605987 42.46798469 51.62248088 33.67025491 51.64137906 C29.18286494 51.65053297 24.69585629 51.65169059 20.20849609 51.63102341 C16.09698941 51.61229697 11.98617589 51.61683517 7.87469546 51.63956922 C6.3908863 51.64375082 4.90702383 51.63956969 3.42327108 51.62597328 C-6.52440358 51.54105763 -15.56728144 52.38926996 -22.61050415 60.14242554 Z " fill="#FDD22D" transform="translate(79.67300415039063,-0.267425537109375)"/>
<path d="M0 0 C126.54752304 0 126.54752304 0 154.44140625 26.35546875 C171.30265438 43.78304888 180.41327684 67.28802373 180.30249023 91.43139648 C179.69151777 116.96436204 168.06762401 139.72062195 149.75 157.1875 C131.2656773 173.40948556 108.92170562 180.2380019 84.71484375 180.09765625 C83.87860474 180.09664917 83.04236572 180.09564209 82.18078613 180.09460449 C79.09967652 180.08942898 76.01858667 180.07546841 72.9375 180.0625 C66.028125 180.041875 59.11875 180.02125 52 180 C52 205.08 52 230.16 52 256 C34.84 256 17.68 256 0 256 C0 171.52 0 87.04 0 0 Z M52 52 C52 77.08 52 102.16 52 128 C86.32643786 130.42618651 86.32643786 130.42618651 116.33984375 116.84765625 C123.5137485 108.86352226 127.07124453 100.16468508 128.4375 89.625 C127.29838349 80.18660607 124.44544938 72.0356351 118 65 C117.47535156 64.38511719 116.95070313 63.77023438 116.41015625 63.13671875 C110.90324271 57.08559257 103.15089811 52.33784414 94.81060791 51.87974548 C93.62480133 51.8830764 93.62480133 51.8830764 92.41503906 51.88647461 C91.04532959 51.88665588 91.04532959 51.88665588 89.64794922 51.88684082 C88.22119873 51.89451477 88.22119873 51.89451477 86.765625 51.90234375 C85.88503418 51.90335083 85.00444336 51.90435791 84.09716797 51.90539551 C80.81476536 51.91061867 77.53238134 51.92457994 74.25 51.9375 C66.9075 51.958125 59.565 51.97875 52 52 Z " fill="#FDD32D" transform="translate(179,128)"/>
</svg>
